<?xml version="1.0" encoding="utf-8"?>
<!-- Generator: Adobe Illustrator 26.4.1, SVG Export Plug-In . SVG Version: 6.00 Build 0)  -->
<svg version="1.1" id="图层_1" xmlns="http://www.w3.org/2000/svg" xmlns:xlink="http://www.w3.org/1999/xlink" x="0px" y="0px"
	 viewBox="0 0 48 48" style="enable-background:new 0 0 48 48;" xml:space="preserve" fill="white">
<path class="st3" d="M5.6,4l24.3-1.8c3-0.3,3.7-0.1,5.6,1.3l7.8,5.4c1.3,0.9,1.7,1.2,1.7,2.2V41c0,1.9-0.7,3-3.1,3.1l-28.2,1.7
	c-1.8,0.1-2.6-0.2-3.6-1.4l-5.7-7.4c-1-1.4-1.4-2.4-1.4-3.6V7C3,5.4,3.7,4.2,5.6,4z M11.7,15.4v25.4c0,1.4,0.7,1.9,2.2,1.8L40.4,41
	c1.5-0.1,1.7-1,1.7-2.1V13.7c0-1.1-0.4-1.7-1.4-1.6l-27.7,1.6C12,13.8,11.7,14.3,11.7,15.4z M10.2,9.8c1.4,1.1,1.9,1,4.4,0.9
	l24.1-1.4c0.5,0,0.1-0.5-0.1-0.6l-4-2.9c-0.8-0.6-1.8-1.3-3.7-1.1L7.6,6.3c-0.9,0.1-1,0.5-0.7,0.9L10.2,9.8z"/>
<g>
	<polygon class="st4" points="29.2,17.5 25.1,17.7 25.1,17.7 29.2,17.5 	"/>
	<path class="st4" d="M37.5,35.9c-0.4,0-0.8-0.1-1-0.1c-0.3-0.1-0.5-0.1-0.6-0.2c-0.1-0.1-0.2-0.2-0.3-0.3c0-0.1-0.1-0.3-0.1-0.5
		l-0.2-15c0-0.2,0-0.4,0-0.5c0-0.1,0.1-0.2,0.2-0.4c0.1-0.1,0.3-0.2,0.6-0.3c0.3-0.1,0.6-0.2,1-0.2c0.2-0.1,0.3-0.2,0.3-0.5
		c0-0.1,0-0.1,0-0.3c0-0.1,0-0.2-0.1-0.3l-8.2,0.4c0,0.1-0.1,0.2-0.1,0.3c0,0.1,0,0.2,0,0.3c0,0.3,0.1,0.4,0.3,0.5
		c0.4,0,0.8,0.1,1,0.1c0.3,0.1,0.5,0.1,0.6,0.2c0.1,0.1,0.2,0.2,0.3,0.3c0,0.1,0.1,0.3,0.1,0.5l0.1,5.4l-8.5,0.5l0-5.5
		c0-0.2,0-0.4,0-0.5c0-0.1,0.1-0.3,0.3-0.4c0.1-0.1,0.3-0.2,0.6-0.3c0.3-0.1,0.6-0.2,1.1-0.2c0.2-0.1,0.3-0.2,0.3-0.5
		c0-0.1,0-0.1,0-0.3c0-0.1,0-0.2-0.1-0.3l-8.5,0.4c0,0.1-0.1,0.2-0.1,0.3c0,0.1,0,0.2,0,0.3c0,0.3,0.1,0.4,0.3,0.5
		c0.5,0,0.8,0.1,1.1,0.1c0.3,0.1,0.5,0.1,0.6,0.2c0.1,0.1,0.2,0.2,0.3,0.3c0,0.1,0.1,0.3,0.1,0.5l0.1,15.3c0,0.2,0,0.4-0.1,0.5
		c0,0.1-0.1,0.3-0.3,0.4c-0.1,0.1-0.3,0.2-0.6,0.3c-0.3,0.1-0.6,0.2-1.1,0.3c-0.2,0-0.3,0.2-0.3,0.6c0,0.1,0,0.2,0,0.3
		c0,0.1,0,0.2,0.1,0.3c0,0,0,0,0,0l0,0l8.6-0.5l0-0.1c0-0.1,0-0.2,0-0.3c0-0.1,0-0.2,0-0.3c0-0.3-0.1-0.5-0.3-0.5
		c-0.4,0-0.8-0.1-1.1-0.1c-0.3-0.1-0.5-0.1-0.6-0.2c-0.1-0.1-0.2-0.2-0.3-0.3c0-0.1-0.1-0.3-0.1-0.5l0-6.2l8.6-0.5l0.1,6.2
		c0,0.2,0,0.4-0.1,0.5c0,0.1-0.1,0.3-0.2,0.4c-0.1,0.1-0.3,0.2-0.6,0.3c-0.3,0.1-0.6,0.2-1.1,0.3c-0.2,0-0.3,0.2-0.3,0.5
		c0,0.1,0,0.2,0,0.3c0,0.1,0,0.2,0.1,0.3l0,0l8.4-0.5l0-0.1c0,0,0,0,0,0c0-0.1,0-0.2,0-0.3c0-0.1,0-0.2,0-0.3
		C37.8,36.1,37.7,35.9,37.5,35.9z"/>
</g>
</svg>
